<svg width="200" height="200" viewBox="0 0 64 80" fill="none" xmlns="http://www.w3.org/2000/svg">
  <defs>
    <!-- Dégradé vert futuriste -->
    <radialGradient id="aiGradient" cx="50%" cy="50%" r="50%">
      <stop offset="0%" stop-color="#A7F3D0"/>
      <stop offset="50%" stop-color="#34D399"/>
      <stop offset="100%" stop-color="#059669"/>
    </radialGradient>

    <!-- Effet glassmorphique -->
    <filter id="glass" x="-50%" y="-50%" width="200%" height="200%">
      <feGaussianBlur in="SourceGraphic" stdDeviation="1.8" result="blur"/>
      <feColorMatrix in="blur" type="matrix"
        values="1 0 0 0 0
                0 1 0 0 0
                0 0 1 0 0
                0 0 0 0.3 0"/>
      <feBlend in2="SourceGraphic" mode="normal"/>
    </filter>

    <!-- Glow néon -->
    <filter id="glow" x="-50%" y="-50%" width="200%" height="200%">
      <feDropShadow dx="0" dy="0" stdDeviation="2" flood-color="#6EE7B7" flood-opacity="0.6"/>
      <feDropShadow dx="0" dy="0" stdDeviation="6" flood-color="#34D399" flood-opacity="0.4"/>
      <feDropShadow dx="0" dy="0" stdDeviation="12" flood-color="#059669" flood-opacity="0.2"/>
    </filter>
  </defs>

  <!-- Fond glasmorphique -->
  <rect width="64" height="64" rx="16"
    fill="rgba(255, 255, 255, 0.08)"
    stroke="rgba(255,255,255,0.1)"
    style="backdrop-filter: blur(12px); -webkit-backdrop-filter: blur(12px);" />

  <!-- Icône centrale avec effets -->
  <g filter="url(#glass)">
    <path fill-rule="evenodd" clip-rule="evenodd"
      d="M32 12C29 12 26.5 13 24.5 14.5C22.5 16 21 18.2 20.2 20.7C19.6 22.4 19.2 24.2 19.1 26C19 26.9 18.5 27.7 17.6 28.2L15.6 29.2C14.7 29.7 14.1 30.6 14.2 31.5C14.3 32.7 14.6 33.8 15.1 34.9C15.9 36.6 17 38 18.4 39.3C19.8 40.6 21.5 41.6 23.3 42.3C25.1 43 27 43.3 29 43.3C31 43.3 32.9 43 34.7 42.3C36.5 41.6 38.2 40.6 39.6 39.3C41 38 42.1 36.6 42.9 34.9C43.4 33.8 43.7 32.7 43.8 31.5C43.9 30.6 44.5 29.7 45.4 29.2L47.4 28.2C48.3 27.7 48.8 26.9 48.7 26C48.6 24.2 48.2 22.4 47.6 20.7C46.8 18.2 45.3 16 43.3 14.5C41.3 13 38.8 12 36 12H32Z"
      fill="url(#aiGradient)" filter="url(#glow)" />
  </g>

  <!-- Texte en bas centré -->
  <text x="50%" y="76" text-anchor="middle" font-family="Segoe UI, Arial, sans-serif"
        font-size="10" fill="white" font-weight="600" opacity="0.85"
        style="text-shadow: 0 0 4px rgba(0,255,179,0.6); letter-spacing: 0.5px;">
    IA BIZO
  </text>
</svg>
